ffmpeg started on 2025-05-13 at 10:07:27
Report written to "D:\Convert\FFMetrics\reports\psnr_report-6.txt"
Log level: 32
Command line:
ffmpeg -hide_banner -nostdin -i "G:\\\xc0\xed\xe8\xec\xe5\\\xce\xed\xe3\xee\xe8\xed\xe3\xe8\\!_35_\xcb\xe5\xf2\xee_2024\\DreamCast-1\\\xd3 \xec\xee\xe5\xe9 \xe6\xe5\xed\xfb \xed\xe5\xf2 \xfd\xec\xee\xf6\xe8\xe9\\[DC] Boku no Tsuma wa Kanjou ga Nai - 03_Telegram_HEVC.mkv" -i "G:\\\xc0\xed\xe8\xec\xe5\\\xce\xed\xe3\xee\xe8\xed\xe3\xe8\\!_35_\xcb\xe5\xf2\xee_2024\\DreamCast-1\\\xd3 \xec\xee\xe5\xe9 \xe6\xe5\xed\xfb \xed\xe5\xf2 \xfd\xec\xee\xf6\xe8\xe9\\[DC] Boku no Tsuma wa Kanjou ga Nai - 03_Telegram.mp4" -lavfi "[0:v]settb=AVTB,setpts=PTS-STARTPTS,format=pix_fmts=yuv420p10,fps=24000/1001,scale=1920:1080:flags=bicubic[main];[1:v]settb=AVTB,setpts=PTS-STARTPTS,format=pix_fmts=yuv420p,fps=24000/1001,scale=1920:1080:flags=bicubic[ref];[main][ref]psnr=eof_action=endall:stats_file='D\\:/Convert/FFMetrics/logs/psnr_logfile-6.txt'" -f null -
Input #0, matroska,webm, from 'G:\Аниме\Онгоинги\!_35_Лето_2024\DreamCast-1\У моей жены нет эмоций\[DC] Boku no Tsuma wa Kanjou ga Nai - 03_Telegram_HEVC.mkv':
  Metadata:
    COMPATIBLE_BRANDS: isomiso2avc1mp41
    MAJOR_BRAND     : isom
    MINOR_VERSION   : 512
    ENCODER         : Lavf61.7.100
  Duration: 00:23:46.73, start: -0.021000, bitrate: 1067 kb/s
  Stream #0:0: Video: hevc (Main 10), yuv420p10le(tv, bt709, progressive), 1920x1080 [SAR 1:1 DAR 16:9], 23.98 fps, 23.98 tbr, 1k tbn (default)
      Metadata:
        HANDLER_NAME    : VideoHandler
        VENDOR_ID       : [0][0][0][0]
        ENCODER         : Lavc61.19.100 libx265
        BPS             : 870155
        DURATION        : 00:23:46.633708333
        NUMBER_OF_FRAMES: 34205
        NUMBER_OF_BYTES : 155174121
        _STATISTICS_WRITING_APP: mkvpropedit v66.0.0 ('Josie') 64-bit
        _STATISTICS_WRITING_DATE_UTC: 2025-05-11 12:12:32
        _STATISTICS_TAGS: BPS DURATION NUMBER_OF_FRAMES NUMBER_OF_BYTES
  Stream #0:1: Audio: aac (LC), 48000 Hz, stereo, fltp (default)
      Metadata:
        HANDLER_NAME    : SoundHandler
        VENDOR_ID       : [0][0][0][0]
        ENCODER         : Lavc61.19.100 aac
        BPS             : 193496
        DURATION        : 00:23:46.730000000
        NUMBER_OF_FRAMES: 66879
        NUMBER_OF_BYTES : 34508404
        _STATISTICS_WRITING_APP: mkvpropedit v66.0.0 ('Josie') 64-bit
        _STATISTICS_WRITING_DATE_UTC: 2025-05-11 12:12:32
        _STATISTICS_TAGS: BPS DURATION NUMBER_OF_FRAMES NUMBER_OF_BYTES
Input #1, mov,mp4,m4a,3gp,3g2,mj2, from 'G:\Аниме\Онгоинги\!_35_Лето_2024\DreamCast-1\У моей жены нет эмоций\[DC] Boku no Tsuma wa Kanjou ga Nai - 03_Telegram.mp4':
  Metadata:
    major_brand     : isom
    minor_version   : 512
    compatible_brands: isomiso2avc1mp41
    encoder         : Lavf61.1.100
  Duration: 00:23:46.70, start: 0.000000, bitrate: 3855 kb/s
  Stream #1:0[0x1](und): Video: h264 (High) (avc1 / 0x31637661), yuv420p(tv, bt709, progressive), 1920x1080 [SAR 1:1 DAR 16:9], 3707 kb/s, 23.98 fps, 23.98 tbr, 24k tbn (default)
      Metadata:
        handler_name    : VideoHandler
        vendor_id       : [0][0][0][0]
        encoder         : Lavc61.3.100 h264_qsv
  Stream #1:1[0x2](und): Audio: aac (HE-AACv2) (mp4a / 0x6134706D), 48000 Hz, stereo, fltp, 144 kb/s (default)
      Metadata:
        handler_name    : SoundHandler
        vendor_id       : [0][0][0][0]
Stream mapping:
  Stream #0:0 (hevc) -> settb:default
  Stream #1:0 (h264) -> settb:default
  psnr:default -> Stream #0:0 (wrapped_avframe)
  Stream #0:1 -> #0:1 (aac (native) -> pcm_s16le (native))
Output #0, null, to 'pipe:':
  Metadata:
    COMPATIBLE_BRANDS: isomiso2avc1mp41
    MAJOR_BRAND     : isom
    MINOR_VERSION   : 512
    encoder         : Lavf61.7.100
  Stream #0:0: Video: wrapped_avframe, yuv420p10le(tv, bt709, progressive), 1920x1080 [SAR 1:1 DAR 16:9], q=2-31, 200 kb/s, 23.98 fps, 23.98 tbn
      Metadata:
        encoder         : Lavc61.19.100 wrapped_avframe
  Stream #0:1: Audio: pcm_s16le, 48000 Hz, stereo, s16, 1536 kb/s (default)
      Metadata:
        HANDLER_NAME    : SoundHandler
        VENDOR_ID       : [0][0][0][0]
        _STATISTICS_TAGS: BPS DURATION NUMBER_OF_FRAMES NUMBER_OF_BYTES
        BPS             : 193496
        DURATION        : 00:23:46.730000000
        NUMBER_OF_FRAMES: 66879
        NUMBER_OF_BYTES : 34508404
        _STATISTICS_WRITING_APP: mkvpropedit v66.0.0 ('Josie') 64-bit
        _STATISTICS_WRITING_DATE_UTC: 2025-05-11 12:12:32
        encoder         : Lavc61.19.100 pcm_s16le
frame=  171 fps=0.0 q=-0.0 size=N/A time=00:00:07.13 bitrate=N/A speed=13.8x    frame=  393 fps=384 q=-0.0 size=N/A time=00:00:16.39 bitrate=N/A speed=  16x    frame=  635 fps=410 q=-0.0 size=N/A time=00:00:26.48 bitrate=N/A speed=17.1x    frame=  894 fps=433 q=-0.0 size=N/A time=00:00:37.28 bitrate=N/A speed=18.1x    frame= 1113 fps=432 q=-0.0 size=N/A time=00:00:46.42 bitrate=N/A speed=  18x    frame= 1319 fps=426 q=-0.0 size=N/A time=00:00:55.01 bitrate=N/A speed=17.8x    frame= 1525 fps=423 q=-0.0 size=N/A time=00:01:03.60 bitrate=N/A speed=17.6x    frame= 1750 fps=424 q=-0.0 size=N/A time=00:01:12.98 bitrate=N/A speed=17.7x    frame= 1987 fps=429 q=-0.0 size=N/A time=00:01:22.87 bitrate=N/A speed=17.9x    frame= 2249 fps=436 q=-0.0 size=N/A time=00:01:33.80 bitrate=N/A speed=18.2x    frame= 2454 fps=434 q=-0.0 size=N/A time=00:01:42.35 bitrate=N/A speed=18.1x    frame= 2661 fps=430 q=-0.0 size=N/A time=00:01:50.98 bitrate=N/A speed=17.9x    frame= 2889 fps=432 q=-0.0 size=N/A time=00:02:00.49 bitrate=N/A speed=  18x    frame= 3098 fps=429 q=-0.0 size=N/A time=00:02:09.21 bitrate=N/A speed=17.9x    frame= 3252 fps=421 q=-0.0 size=N/A time=00:02:15.63 bitrate=N/A speed=17.6x    frame= 3452 fps=419 q=-0.0 size=N/A time=00:02:23.97 bitrate=N/A speed=17.5x    frame= 3624 fps=413 q=-0.0 size=N/A time=00:02:31.15 bitrate=N/A speed=17.2x    frame= 3850 fps=415 q=-0.0 size=N/A time=00:02:40.57 bitrate=N/A speed=17.3x    frame= 4057 fps=414 q=-0.0 size=N/A time=00:02:49.21 bitrate=N/A speed=17.3x    frame= 4268 fps=414 q=-0.0 size=N/A time=00:02:58.01 bitrate=N/A speed=17.3x    frame= 4462 fps=412 q=-0.0 size=N/A time=00:03:06.10 bitrate=N/A speed=17.2x    frame= 4721 fps=416 q=-0.0 size=N/A time=00:03:16.90 bitrate=N/A speed=17.4x    frame= 4993 fps=421 q=-0.0 size=N/A time=00:03:28.24 bitrate=N/A speed=17.6x    frame= 5272 fps=426 q=-0.0 size=N/A time=00:03:39.88 bitrate=N/A speed=17.8x    frame= 5536 fps=430 q=-0.0 size=N/A time=00:03:50.89 bitrate=N/A speed=17.9x    frame= 5796 fps=432 q=-0.0 size=N/A time=00:04:01.74 bitrate=N/A speed=  18x    frame= 6053 fps=435 q=-0.0 size=N/A time=00:04:12.46 bitrate=N/A speed=18.1x    frame= 6297 fps=437 q=-0.0 size=N/A time=00:04:22.63 bitrate=N/A speed=18.2x    frame= 6570 fps=439 q=-0.0 size=N/A time=00:04:34.02 bitrate=N/A speed=18.3x    frame= 6819 fps=441 q=-0.0 size=N/A time=00:04:44.40 bitrate=N/A speed=18.4x    frame= 7090 fps=444 q=-0.0 size=N/A time=00:04:55.71 bitrate=N/A speed=18.5x    frame= 7378 fps=447 q=-0.0 size=N/A time=00:05:07.72 bitrate=N/A speed=18.6x    frame= 7649 fps=450 q=-0.0 size=N/A time=00:05:19.02 bitrate=N/A speed=18.8x    frame= 7904 fps=451 q=-0.0 size=N/A time=00:05:29.66 bitrate=N/A speed=18.8x    frame= 8156 fps=452 q=-0.0 size=N/A time=00:05:40.17 bitrate=N/A speed=18.9x    frame= 8419 fps=454 q=-0.0 size=N/A time=00:05:51.14 bitrate=N/A speed=18.9x    frame= 8654 fps=454 q=-0.0 size=N/A time=00:06:00.94 bitrate=N/A speed=18.9x    frame= 8898 fps=454 q=-0.0 size=N/A time=00:06:11.12 bitrate=N/A speed=18.9x    frame= 9156 fps=456 q=-0.0 size=N/A time=00:06:21.88 bitrate=N/A speed=  19x    frame= 9379 fps=455 q=-0.0 size=N/A time=00:06:31.18 bitrate=N/A speed=  19x    frame= 9630 fps=455 q=-0.0 size=N/A time=00:06:41.65 bitrate=N/A speed=  19x    frame= 9865 fps=456 q=-0.0 size=N/A time=00:06:51.45 bitrate=N/A speed=  19x    frame=10126 fps=457 q=-0.0 size=N/A time=00:07:02.33 bitrate=N/A speed=  19x    frame=10390 fps=458 q=-0.0 size=N/A time=00:07:13.34 bitrate=N/A speed=19.1x    frame=10624 fps=458 q=-0.0 size=N/A time=00:07:23.10 bitrate=N/A speed=19.1x    frame=10875 fps=459 q=-0.0 size=N/A time=00:07:33.57 bitrate=N/A speed=19.1x    frame=11153 fps=460 q=-0.0 size=N/A time=00:07:45.17 bitrate=N/A speed=19.2x    frame=11421 fps=462 q=-0.0 size=N/A time=00:07:56.35 bitrate=N/A speed=19.3x    frame=11671 fps=462 q=-0.0 size=N/A time=00:08:06.77 bitrate=N/A speed=19.3x    frame=11927 fps=463 q=-0.0 size=N/A time=00:08:17.45 bitrate=N/A speed=19.3x    frame=12187 fps=463 q=-0.0 size=N/A time=00:08:28.29 bitrate=N/A speed=19.3x    frame=12438 fps=464 q=-0.0 size=N/A time=00:08:38.76 bitrate=N/A speed=19.4x    frame=12702 fps=465 q=-0.0 size=N/A time=00:08:49.77 bitrate=N/A speed=19.4x    frame=12966 fps=466 q=-0.0 size=N/A time=00:09:00.79 bitrate=N/A speed=19.4x    frame=13240 fps=467 q=-0.0 size=N/A time=00:09:12.21 bitrate=N/A speed=19.5x    frame=13504 fps=468 q=-0.0 size=N/A time=00:09:23.22 bitrate=N/A speed=19.5x    frame=13679 fps=465 q=-0.0 size=N/A time=00:09:30.52 bitrate=N/A speed=19.4x    frame=13924 fps=466 q=-0.0 size=N/A time=00:09:40.74 bitrate=N/A speed=19.4x    frame=14193 fps=467 q=-0.0 size=N/A time=00:09:51.96 bitrate=N/A speed=19.5x    frame=14431 fps=467 q=-0.0 size=N/A time=00:10:01.89 bitrate=N/A speed=19.5x    frame=14633 fps=465 q=-0.0 size=N/A time=00:10:10.31 bitrate=N/A speed=19.4x    frame=14860 fps=465 q=-0.0 size=N/A time=00:10:19.78 bitrate=N/A speed=19.4x    frame=15095 fps=465 q=-0.0 size=N/A time=00:10:29.58 bitrate=N/A speed=19.4x    frame=15365 fps=466 q=-0.0 size=N/A time=00:10:40.84 bitrate=N/A speed=19.4x    frame=15607 fps=466 q=-0.0 size=N/A time=00:10:50.98 bitrate=N/A speed=19.4x    frame=15864 fps=466 q=-0.0 size=N/A time=00:11:01.66 bitrate=N/A speed=19.4x    frame=16103 fps=466 q=-0.0 size=N/A time=00:11:11.62 bitrate=N/A speed=19.4x    frame=16298 fps=465 q=-0.0 size=N/A time=00:11:19.76 bitrate=N/A speed=19.4x    frame=16513 fps=464 q=-0.0 size=N/A time=00:11:28.72 bitrate=N/A speed=19.4x    frame=16763 fps=465 q=-0.0 size=N/A time=00:11:39.15 bitrate=N/A speed=19.4x    frame=17043 fps=466 q=-0.0 size=N/A time=00:11:50.83 bitrate=N/A speed=19.4x    frame=17302 fps=466 q=-0.0 size=N/A time=00:12:01.63 bitrate=N/A speed=19.4x    frame=17507 fps=465 q=-0.0 size=N/A time=00:12:10.18 bitrate=N/A speed=19.4x    frame=17758 fps=465 q=-0.0 size=N/A time=00:12:20.65 bitrate=N/A speed=19.4x    frame=18034 fps=466 q=-0.0 size=N/A time=00:12:32.16 bitrate=N/A speed=19.4x    frame=18264 fps=466 q=-0.0 size=N/A time=00:12:41.76 bitrate=N/A speed=19.4x    frame=18525 fps=467 q=-0.0 size=N/A time=00:12:52.64 bitrate=N/A speed=19.5x    frame=18782 fps=467 q=-0.0 size=N/A time=00:13:03.36 bitrate=N/A speed=19.5x    frame=19021 fps=467 q=-0.0 size=N/A time=00:13:13.33 bitrate=N/A speed=19.5x    frame=19258 fps=467 q=-0.0 size=N/A time=00:13:23.21 bitrate=N/A speed=19.5x    frame=19512 fps=467 q=-0.0 size=N/A time=00:13:33.81 bitrate=N/A speed=19.5x    frame=19767 fps=468 q=-0.0 size=N/A time=00:13:44.44 bitrate=N/A speed=19.5x    frame=20009 fps=468 q=-0.0 size=N/A time=00:13:54.54 bitrate=N/A speed=19.5x    frame=20279 fps=468 q=-0.0 size=N/A time=00:14:05.80 bitrate=N/A speed=19.5x    frame=20513 fps=468 q=-0.0 size=N/A time=00:14:15.56 bitrate=N/A speed=19.5x    frame=20773 fps=468 q=-0.0 size=N/A time=00:14:26.40 bitrate=N/A speed=19.5x    frame=21033 fps=469 q=-0.0 size=N/A time=00:14:37.25 bitrate=N/A speed=19.6x    frame=21308 fps=469 q=-0.0 size=N/A time=00:14:48.72 bitrate=N/A speed=19.6x    frame=21563 fps=470 q=-0.0 size=N/A time=00:14:59.35 bitrate=N/A speed=19.6x    frame=21821 fps=470 q=-0.0 size=N/A time=00:15:10.11 bitrate=N/A speed=19.6x    frame=22033 fps=469 q=-0.0 size=N/A time=00:15:18.95 bitrate=N/A speed=19.6x    frame=22280 fps=469 q=-0.0 size=N/A time=00:15:29.26 bitrate=N/A speed=19.6x    frame=22545 fps=470 q=-0.0 size=N/A time=00:15:40.31 bitrate=N/A speed=19.6x    frame=22790 fps=470 q=-0.0 size=N/A time=00:15:50.53 bitrate=N/A speed=19.6x    frame=23019 fps=470 q=-0.0 size=N/A time=00:16:00.08 bitrate=N/A speed=19.6x    frame=23266 fps=470 q=-0.0 size=N/A time=00:16:10.38 bitrate=N/A speed=19.6x    frame=23529 fps=470 q=-0.0 size=N/A time=00:16:21.39 bitrate=N/A speed=19.6x    frame=23799 fps=471 q=-0.0 size=N/A time=00:16:32.61 bitrate=N/A speed=19.6x    frame=24077 fps=472 q=-0.0 size=N/A time=00:16:44.21 bitrate=N/A speed=19.7x    frame=24306 fps=471 q=-0.0 size=N/A time=00:16:53.76 bitrate=N/A speed=19.7x    frame=24572 fps=472 q=-0.0 size=N/A time=00:17:04.85 bitrate=N/A speed=19.7x    frame=24799 fps=471 q=-0.0 size=N/A time=00:17:14.32 bitrate=N/A speed=19.7x    frame=25077 fps=472 q=-0.0 size=N/A time=00:17:25.91 bitrate=N/A speed=19.7x    frame=25342 fps=473 q=-0.0 size=N/A time=00:17:36.97 bitrate=N/A speed=19.7x    frame=25610 fps=473 q=-0.0 size=N/A time=00:17:48.15 bitrate=N/A speed=19.7x    frame=25874 fps=473 q=-0.0 size=N/A time=00:17:59.16 bitrate=N/A speed=19.7x    frame=26125 fps=473 q=-0.0 size=N/A time=00:18:09.63 bitrate=N/A speed=19.7x    frame=26398 fps=474 q=-0.0 size=N/A time=00:18:21.01 bitrate=N/A speed=19.8x    frame=26649 fps=474 q=-0.0 size=N/A time=00:18:31.48 bitrate=N/A speed=19.8x    frame=26888 fps=474 q=-0.0 size=N/A time=00:18:41.45 bitrate=N/A speed=19.8x    frame=27147 fps=474 q=-0.0 size=N/A time=00:18:52.25 bitrate=N/A speed=19.8x    frame=27390 fps=474 q=-0.0 size=N/A time=00:19:02.39 bitrate=N/A speed=19.8x    frame=27652 fps=474 q=-0.0 size=N/A time=00:19:13.31 bitrate=N/A speed=19.8x    frame=27920 fps=475 q=-0.0 size=N/A time=00:19:24.49 bitrate=N/A speed=19.8x    frame=28143 fps=474 q=-0.0 size=N/A time=00:19:33.83 bitrate=N/A speed=19.8x    frame=28406 fps=475 q=-0.0 size=N/A time=00:19:44.76 bitrate=N/A speed=19.8x    frame=28647 fps=475 q=-0.0 size=N/A time=00:19:54.81 bitrate=N/A speed=19.8x    frame=28884 fps=475 q=-0.0 size=N/A time=00:20:04.70 bitrate=N/A speed=19.8x    frame=29147 fps=475 q=-0.0 size=N/A time=00:20:15.67 bitrate=N/A speed=19.8x    frame=29382 fps=475 q=-0.0 size=N/A time=00:20:25.47 bitrate=N/A speed=19.8x    frame=29622 fps=475 q=-0.0 size=N/A time=00:20:35.48 bitrate=N/A speed=19.8x    frame=29885 fps=475 q=-0.0 size=N/A time=00:20:46.45 bitrate=N/A speed=19.8x    frame=30136 fps=475 q=-0.0 size=N/A time=00:20:56.92 bitrate=N/A speed=19.8x    frame=30384 fps=475 q=-0.0 size=N/A time=00:21:07.26 bitrate=N/A speed=19.8x    frame=30612 fps=475 q=-0.0 size=N/A time=00:21:16.77 bitrate=N/A speed=19.8x    frame=30830 fps=474 q=-0.0 size=N/A time=00:21:25.86 bitrate=N/A speed=19.8x    frame=31057 fps=474 q=-0.0 size=N/A time=00:21:35.33 bitrate=N/A speed=19.8x    frame=31318 fps=474 q=-0.0 size=N/A time=00:21:46.22 bitrate=N/A speed=19.8x    frame=31573 fps=474 q=-0.0 size=N/A time=00:21:56.85 bitrate=N/A speed=19.8x    frame=31829 fps=475 q=-0.0 size=N/A time=00:22:07.53 bitrate=N/A speed=19.8x    frame=32079 fps=475 q=-0.0 size=N/A time=00:22:17.96 bitrate=N/A speed=19.8x    frame=32289 fps=474 q=-0.0 size=N/A time=00:22:26.72 bitrate=N/A speed=19.8x    frame=32517 fps=474 q=-0.0 size=N/A time=00:22:36.22 bitrate=N/A speed=19.8x    frame=32704 fps=473 q=-0.0 size=N/A time=00:22:44.02 bitrate=N/A speed=19.7x    frame=32886 fps=472 q=-0.0 size=N/A time=00:22:51.62 bitrate=N/A speed=19.7x    frame=33100 fps=472 q=-0.0 size=N/A time=00:23:00.54 bitrate=N/A speed=19.7x    frame=33293 fps=471 q=-0.0 size=N/A time=00:23:08.59 bitrate=N/A speed=19.7x    frame=33485 fps=470 q=-0.0 size=N/A time=00:23:16.60 bitrate=N/A speed=19.6x    frame=33689 fps=470 q=-0.0 size=N/A time=00:23:25.11 bitrate=N/A speed=19.6x    frame=33908 fps=470 q=-0.0 size=N/A time=00:23:34.24 bitrate=N/A speed=19.6x    frame=34125 fps=469 q=-0.0 size=N/A time=00:23:43.29 bitrate=N/A speed=19.6x    [Parsed_psnr_10 @ 000001992d41cb40] PSNR y:48.392620 u:51.337304 v:51.266393 average:49.164000 min:39.358231 max:inf
[out#0/null @ 0000019920342d40] video:14697KiB audio:267516KiB subtitle:0KiB other streams:0KiB global headers:0KiB muxing overhead: unknown
frame=34205 fps=469 q=-0.0 Lsize=N/A time=00:23:46.63 bitrate=N/A speed=19.6x    
